<svg id="Countryflags.com" xmlns="http://www.w3.org/2000/svg" xmlns:xlink="http://www.w3.org/1999/xlink" viewBox="0 0 303.93 157.86"><defs><style>.cls-1{fill:none;}.cls-2{fill:#00008b;}.cls-3{clip-path:url(#clip-path);}.cls-4,.cls-7{stroke:#fff;}.cls-4{stroke-width:17.58px;}.cls-5{clip-path:url(#clip-path-2);}.cls-6,.cls-8{stroke:red;}.cls-6{stroke-width:9.37px;}.cls-7{stroke-width:23.44px;}.cls-8{stroke-width:14.06px;}.cls-9{fill:#fff;}</style><clipPath id="clip-path" transform="translate(3.93 7.86)"><rect class="cls-1" width="150" height="75"/></clipPath><clipPath id="clip-path-2" transform="translate(3.93 7.86)"><path class="cls-1" d="M0,0V37.5H175V75H150ZM150,0H75V87.5H0V75Z"/></clipPath></defs><title>australia</title><rect id="_12" data-name="12" class="cls-2" x="3.93" y="7.86" width="300" height="150"/><g id="_11" data-name="11"><g class="cls-3"><path class="cls-4" d="M0,0,150,75m0-75L0,75" transform="translate(3.93 7.86)"/></g></g><g id="_10" data-name="10"><g class="cls-5"><path class="cls-6" d="M0,0,150,75m0-75L0,75" transform="translate(3.93 7.86)"/></g></g><path id="_9" data-name="9" class="cls-7" d="M75,0V87.5M0,37.5H175" transform="translate(3.93 7.86)"/><path id="_8" data-name="8" class="cls-8" d="M75,0V80.27M0,37.5H155.27" transform="translate(3.93 7.86)"/><path id="_7" data-name="7" class="cls-2" d="M0,75H150V0h50V100H0Z" transform="translate(3.93 7.86)"/><path id="_6" data-name="6" class="cls-9" d="M75,90l4.34,13.49,13.25-5-7.84,11.8,12.19,7.24-14.12,1.22,1.94,14L75,122.5l-9.76,10.27,1.94-14-14.12-1.22,12.19-7.24-7.84-11.8,13.25,5Z" transform="translate(3.93 7.86)"/><path id="_5" data-name="5" class="cls-9" d="M225,114.29l2.07,6.42,6.31-2.39-3.74,5.62,5.81,3.44-6.73.59.93,6.68L225,129.76l-4.65,4.89.93-6.68-6.73-.59,5.81-3.44-3.74-5.62,6.31,2.39Z" transform="translate(3.93 7.86)"/><path id="_4" data-name="4" class="cls-9" d="M187.5,54.91l2.07,6.42,6.31-2.39-3.74,5.63L198,68l-6.73.58.93,6.69-4.65-4.89-4.65,4.89.93-6.69L177.05,68l5.81-3.44-3.74-5.63,6.31,2.39Z" transform="translate(3.93 7.86)"/><path id="_3" data-name="3" class="cls-9" d="M225,14.29l2.07,6.42,6.31-2.39-3.74,5.62,5.81,3.44-6.73.59.93,6.68L225,29.76l-4.65,4.89.93-6.68-6.73-.59,5.81-3.44-3.74-5.62,6.31,2.39Z" transform="translate(3.93 7.86)"/><path id="_2" data-name="2" class="cls-9" d="M258.33,44.91l2.07,6.42,6.31-2.39L263,54.57l5.8,3.44-6.72.58.92,6.69-4.65-4.89-4.65,4.89.93-6.69L247.89,58l5.8-3.44L250,48.94l6.31,2.39Z" transform="translate(3.93 7.86)"/><path id="_1" data-name="1" class="cls-9" d="M240,75l1.63,4,4.31.32-3.3,2.79,1,4.2L240,84l-3.67,2.28,1-4.2-3.3-2.79,4.31-.32Z" transform="translate(3.93 7.86)"/></svg>