<svg id="Countryflags.com" xmlns="http://www.w3.org/2000/svg" xmlns:xlink="http://www.w3.org/1999/xlink" viewBox="0 0 307.5 210"><defs><style>.cls-1{fill:none;}.cls-2{fill:#009b3a;}.cls-3{fill:#fedf00;}.cls-4{fill:#002776;}.cls-5{clip-path:url(#clip-path);}.cls-6{fill:#fff;}</style><clipPath id="clip-path" transform="translate(7.5)"><circle class="cls-1" cx="150" cy="105" r="52.5"/></clipPath></defs><title>brazil</title><rect id="_48" data-name="48" class="cls-2" x="7.5" width="300" height="210"/><path id="_47" data-name="47" class="cls-3" d="M25.5,105,150,184.5,274.5,105,150,25.5Z" transform="translate(7.5)"/><circle id="_46" data-name="46" class="cls-4" cx="157.5" cy="105" r="52.5"/><g id="_45" data-name="45"><g class="cls-5"><path class="cls-6" d="M-7.5,210a127.5,127.5,0,0,1,255,0H240A120,120,0,0,0,0,210Z" transform="translate(7.5)"/></g></g><path id="_44" data-name="44" class="cls-2" d="M122,88.75l4.5.15,0-.93-3.64-.12,0-1.29,2.85.1,0-.85-2.85-.1,0-1,3.43.12,0-.93-4.28-.15Z" transform="translate(7.5)"/><path id="_43" data-name="43" class="cls-2" d="M128.33,89l.85.07.3-3.42.7,3.51.78.07,1.29-3.33L132,89.33l.85.08.44-5L132,84.32l-1.3,3.33L130,84.14,128.76,84Z" transform="translate(7.5)"/><path id="_42" data-name="42" class="cls-2" d="M138.69,90.18l3.69.64.15-.85-2.85-.49.19-1.12,2.32.4.15-.85-2.33-.4.14-.77,2.76.47.15-.84-3.61-.62Z" transform="translate(7.5)"/><rect id="_41" data-name="41" class="cls-2" x="170.04" y="96.41" width="0.71" height="1.89" transform="translate(20.68 214.82) rotate(-66.51)"/><rect id="_40" data-name="40" class="cls-2" x="169.33" y="98.06" width="2.5" height="0.71" transform="translate(19.81 215.61) rotate(-66.5)"/><path id="_39" data-name="39" class="cls-2" d="M185,105.81c-.27.42,0,.89.61,1.27s1,.37,1.19.1c.54-.86-2.62-2.11-1.65-3.6.85-1.29,2.28-.29,2.83.06a1.63,1.63,0,0,1,.73,2.27l-.92-.59c.29-.45,0-.89-.51-1.19s-.84-.44-1.12,0c-.47.7,2.63,2,1.68,3.51-.7,1.1-1.92.62-2.73.1s-1.73-1.48-1.06-2.54Z" transform="translate(7.5)"/><path id="_38" data-name="38" class="cls-2" d="M177.75,103.36l3.91,2.22.46-.81L179,103l.63-1.12,2.49,1.4.42-.74L180,101.11l.49-.87,3,1.69.46-.81L180.21,99Z" transform="translate(7.5)"/><path id="_37" data-name="37" class="cls-2" d="M190.41,109.36c-.29.4,0,.89.54,1.3s1,.42,1.17.16c.6-.83-2.5-2.24-1.44-3.69.9-1.24,2.29-.16,2.81.21a1.64,1.64,0,0,1,.61,2.31l-.88-.64c.31-.43,0-.88-.45-1.21s-.82-.48-1.12-.06c-.5.67,2.52,2.15,1.49,3.59-.75,1.06-1.94.52-2.73,0s-1.65-1.57-.92-2.59Z" transform="translate(7.5)"/><path id="_36" data-name="36" class="cls-2" d="M107.15,86.9a2.26,2.26,0,1,0-4.46.55,2.26,2.26,0,1,0,4.46-.55Zm-2.23-1.25c1.7,0,1.7,3,0,3S103.22,85.65,104.92,85.65Z" transform="translate(7.5)"/><path id="_35" data-name="35" class="cls-2" d="M199.28,114.31a2.26,2.26,0,1,0-3.15,1.18A2.4,2.4,0,0,0,199.28,114.31ZM198.14,112c1.4,1-.32,3.47-1.72,2.51S196.74,111.06,198.14,112Z" transform="translate(7.5)"/><path id="_34" data-name="34" class="cls-2" d="M119.71,84.7a2.19,2.19,0,0,0-1.66-.93l-2.5,0,.08,5s2,0,2.51,0a2.3,2.3,0,0,0,1.55-.89,2.39,2.39,0,0,0,.4-1.54A2.61,2.61,0,0,0,119.71,84.7Zm-2,3.16h-1.12l-.06-3.14H118a1.31,1.31,0,0,1,1.21.92,6,6,0,0,1,.07.91,1.45,1.45,0,0,1-.46,1A1.69,1.69,0,0,1,117.67,87.86Z" transform="translate(7.5)"/><path id="_33" data-name="33" class="cls-2" d="M112.88,86.86a2.21,2.21,0,0,0,.66-1.07,1.47,1.47,0,0,0-.43-1.3,1.43,1.43,0,0,0-1-.48c-.51,0-3.06.2-3.06.2l.28,5,.92-.06-.13-1.86,1.61-.11.39,0a4.11,4.11,0,0,1,.54,1.31,3.57,3.57,0,0,1,0,.55h.9a3.7,3.7,0,0,0-.23-1.42A3.19,3.19,0,0,0,112.88,86.86Zm-.56-.77a1.66,1.66,0,0,1-.74.17l-1.55.1s-.06-.87-.09-1.28c.23,0,1.46-.11,1.49-.11.24,0,.52,0,.52,0a.78.78,0,0,1,.41.18.53.53,0,0,1,.2.43A.74.74,0,0,1,112.32,86.09Z" transform="translate(7.5)"/><path id="_32" data-name="32" class="cls-2" d="M165.69,94.47a2.26,2.26,0,1,0-2.57,2.17A2.39,2.39,0,0,0,165.69,94.47Zm-1.84-1.78c1.64.44.86,3.38-.78,2.94S162.21,92.25,163.85,92.69Z" transform="translate(7.5)"/><path id="_31" data-name="31" class="cls-2" d="M158.51,92.53a2.25,2.25,0,0,0,1-.8,1.58,1.58,0,0,0-.79-2.16c-.5-.15-3-.81-3-.81l-1.37,4.81.89.24.49-1.8,1.55.42.38.11a4.31,4.31,0,0,1,.08,1.42c-.07.29-.15.53-.15.53l.85.29a4,4,0,0,0,.25-1.42A2.8,2.8,0,0,0,158.51,92.53Zm-.28-.92a1.64,1.64,0,0,1-.76-.08L156,91.12s.22-.85.33-1.24c.22.08,1.42.38,1.44.39l.51.14a.68.68,0,0,1,.32.3.52.52,0,0,1,0,.47A.73.73,0,0,1,158.23,91.61Z" transform="translate(7.5)"/><path id="_30" data-name="30" class="cls-2" d="M176.67,99.89a2.24,2.24,0,0,0,1-.72,1.46,1.46,0,0,0,.14-1.36,1.43,1.43,0,0,0-.74-.85c-.48-.2-2.88-1.07-2.88-1.07l-1.78,4.68.88.32.63-1.75,1.51.55.37.13a4.39,4.39,0,0,1,0,1.43c-.09.28-.19.51-.19.51l.82.37a3.86,3.86,0,0,0,.36-1.4A3.09,3.09,0,0,0,176.67,99.89Zm-.2-.94a1.6,1.6,0,0,1-.75-.15l-1.45-.53.43-1.21c.22.1,1.38.5,1.4.51l.5.18a.71.71,0,0,1,.29.33.52.52,0,0,1,0,.48A.7.7,0,0,1,176.47,99Z" transform="translate(7.5)"/><path id="_29" data-name="29" class="cls-2" d="M152.35,90.86a2.15,2.15,0,0,0,1-.83,1.57,1.57,0,0,0-.85-2.13c-.49-.14-3-.74-3-.74L148.23,92l.9.22.44-1.81,1.57.38.38.1m.53-.94a1.64,1.64,0,0,1-.75-.07l-1.51-.37.31-1.25c.22.07,1.42.35,1.44.36l.52.13a.63.63,0,0,1,.32.29.53.53,0,0,1,.07.47A.76.76,0,0,1,152.05,90Z" transform="translate(7.5)"/><path id="_28" data-name="28" class="cls-2" d="M171,97.18a2.7,2.7,0,0,0-.4-.14,1.41,1.41,0,0,1-2,.73c-1.41-1,.31-3.47,1.72-2.51a1.12,1.12,0,0,1,.51.89c.21.09.44.14.66.23l.26.13a2.26,2.26,0,0,0-1.14-2.22,2.51,2.51,0,1,0,.85,3.26l.06-.15Z" transform="translate(7.5)"/><polygon id="_27" data-name="27" class="cls-6" points="175.75 88.03 174.64 88.84 175.07 90.14 173.96 89.34 172.85 90.14 173.27 88.84 172.16 88.03 173.53 88.03 173.96 86.73 174.38 88.03 175.75 88.03"/><polygon id="_26" data-name="26" class="cls-6" points="112.5 94.88 113.83 95.84 113.32 97.39 114.64 96.43 115.97 97.39 115.46 95.84 116.78 94.88 115.15 94.88 114.64 93.32 114.14 94.88 112.5 94.88"/><polygon id="_25" data-name="25" class="cls-6" points="170.4 101.89 171.31 102.56 170.96 103.63 171.88 102.97 172.79 103.63 172.44 102.56 173.36 101.89 172.23 101.89 171.88 100.82 171.53 101.89 170.4 101.89"/><polygon id="_24" data-name="24" class="cls-6" points="123.48 114.21 124.05 114.6 123.83 115.27 124.39 114.86 124.94 115.27 124.73 114.61 125.29 114.21 124.6 114.21 124.39 113.56 124.17 114.21 123.48 114.21"/><polyline id="_23" data-name="23" class="cls-6" points="119.28 115.39 118.78 116.95 117.15 116.95 118.47 117.91 117.96 119.46 119.29 118.5 120.61 119.46 120.1 117.91 121.43 116.95 119.79 116.95 119.29 115.39"/><polygon id="_22" data-name="22" class="cls-6" points="111.07 121.78 112.18 122.58 111.75 123.87 112.86 123.07 113.96 123.87 113.54 122.58 114.64 121.78 113.28 121.78 112.86 120.48 112.44 121.78 111.07 121.78"/><polygon id="_21" data-name="21" class="cls-6" points="135.78 106.53 136.87 107.31 136.45 108.58 137.53 107.8 138.61 108.58 138.2 107.31 139.28 106.53 137.94 106.53 137.53 105.26 137.12 106.53 135.78 106.53"/><polygon id="_20" data-name="20" class="cls-6" points="128.72 122.21 129.72 122.93 129.34 124.1 130.34 123.38 131.33 124.1 130.95 122.93 131.95 122.21 130.72 122.21 130.34 121.04 129.96 122.21 128.72 122.21"/><polygon id="_19" data-name="19" class="cls-6" points="127.24 127.7 128.16 128.37 127.81 129.44 128.72 128.78 129.64 129.44 129.29 128.37 130.21 127.7 129.07 127.7 128.72 126.63 128.38 127.7 127.24 127.7"/><polygon id="_18" data-name="18" class="cls-6" points="134.33 131.88 135.66 132.84 135.15 134.4 136.47 133.44 137.8 134.4 137.29 132.84 138.61 131.88 136.98 131.88 136.47 130.33 135.97 131.88 134.33 131.88"/><polygon id="_17" data-name="17" class="cls-6" points="155.7 113.04 156.81 113.84 156.39 115.15 157.5 114.34 158.61 115.15 158.19 113.84 159.3 113.04 157.92 113.04 157.5 111.73 157.08 113.04 155.7 113.04"/><polygon id="_16" data-name="16" class="cls-6" points="150.71 117.77 151.63 118.43 151.28 119.51 152.19 118.84 153.11 119.51 152.76 118.43 153.68 117.77 152.54 117.77 152.19 116.69 151.84 117.77 150.71 117.77"/><polygon id="_15" data-name="15" class="cls-6" points="153.92 121.39 154.48 121.79 154.26 122.44 154.82 122.04 155.38 122.44 155.17 121.79 155.72 121.39 155.03 121.39 154.82 120.73 154.61 121.39 153.92 121.39"/><polygon id="_14" data-name="14" class="cls-6" points="161.77 117.63 162.88 118.43 162.46 119.74 163.57 118.93 164.68 119.74 164.25 118.43 165.37 117.63 163.99 117.63 163.57 116.32 163.15 117.63 161.77 117.63"/><polygon id="_13" data-name="13" class="cls-6" points="155.36 128.11 156.68 129.07 156.18 130.63 157.5 129.67 158.82 130.63 158.32 129.07 159.64 128.11 158 128.11 157.5 126.56 157 128.11 155.36 128.11"/><polygon id="_12" data-name="12" class="cls-6" points="156.78 145.85 157.21 146.15 157.04 146.65 157.47 146.34 157.89 146.65 157.73 146.15 158.15 145.85 157.63 145.85 157.47 145.35 157.31 145.85 156.78 145.85"/><polygon id="_11" data-name="11" class="cls-6" points="167.58 133.99 168.49 134.65 168.14 135.73 169.06 135.06 169.97 135.73 169.62 134.65 170.54 133.99 169.41 133.99 169.06 132.91 168.71 133.99 167.58 133.99"/><polygon id="_10" data-name="10" class="cls-6" points="171.4 139.75 172.51 140.56 172.08 141.86 173.19 141.06 174.3 141.86 173.88 140.56 174.99 139.75 173.62 139.75 173.19 138.44 172.77 139.75 171.4 139.75"/><polygon id="_9" data-name="9" class="cls-6" points="178.3 135.85 179.22 135.18 178.09 135.18 177.74 134.1 177.39 135.18 176.26 135.18 177.17 135.85 176.82 136.92 177.74 136.26 178.65 136.92 178.3 135.85"/><polygon id="_8" data-name="8" class="cls-6" points="182.09 133.44 183.01 134.1 182.66 135.18 183.57 134.51 184.49 135.18 184.14 134.1 185.06 133.44 183.92 133.44 183.57 132.36 183.22 133.44 182.09 133.44"/><polygon id="_7" data-name="7" class="cls-6" points="181.91 138.4 183.02 139.21 182.6 140.52 183.71 139.71 184.82 140.52 184.4 139.21 185.51 138.4 184.13 138.4 183.71 137.1 183.28 138.4 181.91 138.4"/><polygon id="_6" data-name="6" class="cls-6" points="182.35 143.89 183.27 144.55 182.92 145.63 183.84 144.96 184.75 145.63 184.4 144.55 185.31 143.89 184.18 143.89 183.84 142.81 183.49 143.89 182.35 143.89"/><polygon id="_5" data-name="5" class="cls-6" points="187.58 134.38 188.49 135.04 188.15 136.12 189.06 135.45 189.98 136.12 189.63 135.04 190.54 134.38 189.41 134.38 189.06 133.3 188.71 134.38 187.58 134.38"/><polyline id="_4" data-name="4" class="cls-6" points="191.46 131.66 192.57 132.47 192.15 133.77 193.26 132.96 194.37 133.77 193.95 132.47 195.06 131.66 193.69 131.66 193.26 130.35 192.84 131.66 191.5 131.65"/><polygon id="_3" data-name="3" class="cls-6" points="194.62 127.56 195.73 128.37 195.31 129.68 196.42 128.87 197.53 129.68 197.1 128.37 198.21 127.56 196.84 127.56 196.42 126.26 195.99 127.56 194.62 127.56"/><polygon id="_2" data-name="2" class="cls-6" points="192.14 122.69 193.46 123.66 192.95 125.21 194.28 124.25 195.6 125.21 195.09 123.66 196.42 122.69 194.78 122.69 194.28 121.14 193.77 122.69 192.14 122.69"/><polygon id="_1" data-name="1" class="cls-6" points="200.15 123.49 201.06 124.15 200.71 125.23 201.63 124.56 202.54 125.23 202.19 124.15 203.11 123.49 201.98 123.49 201.63 122.41 201.28 123.49 200.15 123.49"/></svg>