<svg id="Countryflags.com" xmlns="http://www.w3.org/2000/svg" viewBox="0 0 300 200"><defs><style>.cls-1{fill:#de2910;}.cls-2{fill:#ffde00;}</style></defs><title>china</title><rect id="_6" data-name="6" class="cls-1" width="300" height="200"/><polygon id="_5" data-name="5" class="cls-2" points="50 20 67.63 74.27 21.47 40.73 78.53 40.73 32.37 74.27 50 20"/><polygon id="_4" data-name="4" class="cls-2" points="91.42 25.14 103.91 10.8 102.24 29.75 92.46 13.44 109.96 20.88 91.42 25.14"/><polygon id="_3" data-name="3" class="cls-2" points="110.1 41.41 127.18 33.04 118.29 49.85 115.6 31.02 128.84 44.67 110.1 41.41"/><polygon id="_2" data-name="2" class="cls-2" points="110.39 67.25 129.39 66.57 114.42 78.3 119.64 60.01 126.16 77.87 110.39 67.25"/><polygon id="_1" data-name="1" class="cls-2" points="92.19 83.75 109.99 90.46 91.65 95.5 103.53 80.64 102.64 99.64 92.19 83.75"/></svg>