<svg id="Countryflags.com" xmlns="http://www.w3.org/2000/svg" viewBox="0 0 300 200"><defs><style>.cls-1{fill:#f93;}.cls-2{fill:#fff;}.cls-3{fill:#128807;}.cls-4{fill:#008;}</style></defs><title>india</title><rect id="_53" data-name="53" class="cls-1" width="300" height="200"/><rect id="_52" data-name="52" class="cls-2" y="66.67" width="300" height="66.67"/><rect id="_51" data-name="51" class="cls-3" y="133.33" width="300" height="66.67"/><circle id="_50" data-name="50" class="cls-4" cx="150" cy="100" r="26.67"/><circle id="_49" data-name="49" class="cls-2" cx="150" cy="100" r="23.33"/><circle id="_48" data-name="48" class="cls-4" cx="150" cy="100" r="4.67"/><path id="_47" data-name="47" class="cls-4" d="M173.29,101.89a1.17,1.17,0,0,1,1,1.31,1.17,1.17,0,1,1-1-1.31Z"/><path id="_46" data-name="46" class="cls-4" d="M150,123.33l.8-14-.8-6.66-.8,6.66Z"/><path id="_45" data-name="45" class="cls-4" d="M172,107.85a1.17,1.17,0,1,1-1.52.63A1.17,1.17,0,0,1,172,107.85Z"/><path id="_44" data-name="44" class="cls-4" d="M144,122.54l4.4-13.32.95-6.64-2.5,6.23Z"/><path id="_43" data-name="43" class="cls-4" d="M169.22,113.28a1.17,1.17,0,1,1-1.63.21A1.16,1.16,0,0,1,169.22,113.28Z"/><path id="_42" data-name="42" class="cls-4" d="M138.33,120.21l7.7-11.73,2.64-6.17-4,5.37Z"/><path id="_41" data-name="41" class="cls-4" d="M165.13,117.8a1.17,1.17,0,1,1-1.64-.21A1.17,1.17,0,0,1,165.13,117.8Z"/><path id="_40" data-name="40" class="cls-4" d="M133.5,116.5,144,107.17l4.14-5.28L142.83,106Z"/><path id="_39" data-name="39" class="cls-4" d="M160,121.11a1.17,1.17,0,1,1-2.16.89,1.17,1.17,0,0,1,2.16-.89Z"/><path id="_38" data-name="38" class="cls-4" d="M129.79,111.67l12.53-6.31,5.37-4L141.52,104Z"/><path id="_37" data-name="37" class="cls-4" d="M154.2,123a1.16,1.16,0,0,1-1,1.31,1.17,1.17,0,0,1-1.31-1,1.17,1.17,0,0,1,2.31-.31Z"/><path id="_36" data-name="36" class="cls-4" d="M127.46,106l13.73-2.85,6.23-2.5-6.64,1Z"/><path id="_35" data-name="35" class="cls-4" d="M148.11,123.29a1.17,1.17,0,0,1-1.31,1,1.17,1.17,0,1,1,1.31-1Z"/><path id="_34" data-name="34" class="cls-4" d="M126.67,100l14,.8,6.66-.8-6.66-.8Z"/><path id="_33" data-name="33" class="cls-4" d="M142.15,122a1.17,1.17,0,1,1-.63-1.52A1.18,1.18,0,0,1,142.15,122Z"/><path id="_32" data-name="32" class="cls-4" d="M127.46,94l13.32,4.4,6.64,1-6.23-2.5Z"/><path id="_31" data-name="31" class="cls-4" d="M136.72,119.22a1.17,1.17,0,1,1-.21-1.63A1.16,1.16,0,0,1,136.72,119.22Z"/><path id="_30" data-name="30" class="cls-4" d="M129.79,88.33,141.52,96l6.17,2.64-5.37-4Z"/><path id="_29" data-name="29" class="cls-4" d="M132.2,115.13a1.17,1.17,0,1,1,.21-1.64A1.17,1.17,0,0,1,132.2,115.13Z"/><path id="_28" data-name="28" class="cls-4" d="M133.5,83.5,142.83,94l5.28,4.14L144,92.83Z"/><path id="_27" data-name="27" class="cls-4" d="M128.89,110a1.17,1.17,0,1,1,.63-1.53A1.18,1.18,0,0,1,128.89,110Z"/><path id="_26" data-name="26" class="cls-4" d="M138.33,79.79l6.31,12.53,4,5.37L146,91.52Z"/><path id="_25" data-name="25" class="cls-4" d="M127,104.2a1.16,1.16,0,0,1-1.31-1,1.17,1.17,0,0,1,1-1.31,1.17,1.17,0,1,1,.31,2.31Z"/><path id="_24" data-name="24" class="cls-4" d="M144,77.46l2.85,13.73,2.5,6.23-.95-6.64Z"/><path id="_23" data-name="23" class="cls-4" d="M126.71,98.11a1.17,1.17,0,0,1-1-1.31,1.17,1.17,0,1,1,1,1.31Z"/><path id="_22" data-name="22" class="cls-4" d="M150,76.67l-.8,14,.8,6.66.8-6.66Z"/><path id="_22-2" data-name="22" class="cls-4" d="M128,92.15a1.17,1.17,0,1,1,1.52-.63A1.17,1.17,0,0,1,128,92.15Z"/><path id="_21" data-name="21" class="cls-4" d="M156,77.46l-4.4,13.32-.95,6.64,2.5-6.23Z"/><path id="_20" data-name="20" class="cls-4" d="M130.78,86.72a1.17,1.17,0,1,1,1.63-.21A1.16,1.16,0,0,1,130.78,86.72Z"/><path id="_19" data-name="19" class="cls-4" d="M161.67,79.79,154,91.52l-2.64,6.17,4-5.37Z"/><path id="_18" data-name="18" class="cls-4" d="M134.87,82.2a1.17,1.17,0,1,1,1.64.21A1.17,1.17,0,0,1,134.87,82.2Z"/><path id="_17" data-name="17" class="cls-4" d="M166.5,83.5,156,92.83l-4.14,5.28L157.17,94Z"/><path id="_16" data-name="16" class="cls-4" d="M140,78.89a1.17,1.17,0,1,1,1.53.63A1.17,1.17,0,0,1,140,78.89Z"/><path id="_15" data-name="15" class="cls-4" d="M170.21,88.33l-12.53,6.31-5.37,4L158.48,96Z"/><path id="_14" data-name="14" class="cls-4" d="M145.8,77a1.16,1.16,0,0,1,1-1.31,1.17,1.17,0,0,1,1.31,1,1.17,1.17,0,0,1-2.31.31Z"/><path id="_13" data-name="13" class="cls-4" d="M172.54,94l-13.73,2.85-6.23,2.5,6.64-1Z"/><path id="_12" data-name="12" class="cls-4" d="M151.89,76.71a1.17,1.17,0,0,1,1.31-1,1.17,1.17,0,1,1-1.31,1Z"/><path id="_11" data-name="11" class="cls-4" d="M173.33,100l-14-.8-6.66.8,6.66.8Z"/><path id="_10" data-name="10" class="cls-4" d="M157.85,78a1.17,1.17,0,1,1,.63,1.52A1.17,1.17,0,0,1,157.85,78Z"/><path id="_9" data-name="9" class="cls-4" d="M172.54,106l-13.32-4.4-6.64-1,6.23,2.5Z"/><path id="_8" data-name="8" class="cls-4" d="M163.28,80.78a1.17,1.17,0,1,1,.21,1.63A1.16,1.16,0,0,1,163.28,80.78Z"/><path id="_7" data-name="7" class="cls-4" d="M170.21,111.67,158.48,104l-6.17-2.64,5.37,4Z"/><path id="_6" data-name="6" class="cls-4" d="M167.8,84.87a1.17,1.17,0,1,1-.21,1.64A1.17,1.17,0,0,1,167.8,84.87Z"/><path id="_5" data-name="5" class="cls-4" d="M166.5,116.5,157.17,106l-5.28-4.14,4.14,5.28Z"/><path id="_4" data-name="4" class="cls-4" d="M171.11,90a1.17,1.17,0,1,1-.63,1.53A1.17,1.17,0,0,1,171.11,90Z"/><path id="_3" data-name="3" class="cls-4" d="M161.67,120.21l-6.31-12.53-4-5.37,2.64,6.17Z"/><path id="_2" data-name="2" class="cls-4" d="M173,95.8a1.16,1.16,0,0,1,1.31,1,1.17,1.17,0,0,1-1,1.31A1.17,1.17,0,0,1,173,95.8Z"/><path id="_1" data-name="1" class="cls-4" d="M156,122.54l-2.85-13.73-2.5-6.23.95,6.64Z"/></svg>