<svg id="Countryflags.com" xmlns="http://www.w3.org/2000/svg" viewBox="0 0 300 200"><defs><style>.cls-1{fill:#fff;}.cls-2{fill:#c60c30;}.cls-3{fill:#003478;}</style></defs><title>south_korea</title><rect id="_19" data-name="19" class="cls-1" width="300" height="200"/><rect id="_18" data-name="18" x="48.73" y="32.49" width="50" height="33.33" transform="translate(-8.07 83.23) rotate(-56.31)"/><rect id="_17" data-name="17" class="cls-1" x="39.36" y="43.6" width="58.33" height="4.17" transform="translate(-7.5 77.36) rotate(-56.31)"/><rect id="_16" data-name="16" class="cls-1" x="49.76" y="50.54" width="58.33" height="4.17" transform="translate(-8.64 89.1) rotate(-56.31)"/><rect id="_15" data-name="15" x="201.27" y="134.18" width="50" height="33.33" transform="translate(-24.75 255.44) rotate(-56.31)"/><rect id="_14" data-name="14" class="cls-1" x="191.9" y="145.3" width="58.33" height="4.17" transform="translate(-24.19 249.57) rotate(-56.31)"/><rect id="_13" data-name="13" class="cls-1" x="202.3" y="152.23" width="58.33" height="4.17" transform="translate(-25.32 261.31) rotate(-56.31)"/><rect id="_12" data-name="12" class="cls-1" x="224.19" y="130.01" width="4.17" height="41.67" transform="translate(-24.75 255.44) rotate(-56.31)"/><circle id="_11" data-name="11" class="cls-2" cx="150" cy="100" r="50" transform="translate(-7.95 13.09) rotate(-4.87)"/><path id="_10" data-name="10" class="cls-3" d="M108.4,72.26A25,25,0,1,0,150,100a25,25,0,0,1,41.6,27.74,50,50,0,1,1-83.2-55.48"/><rect id="_9" data-name="9" x="57.06" y="125.85" width="33.33" height="50" transform="translate(-71.29 66.23) rotate(-33.69)"/><rect id="_8" data-name="8" class="cls-1" x="66.45" y="125.15" width="4.17" height="58.33" transform="translate(-74.09 63.93) rotate(-33.69)"/><rect id="_7" data-name="7" class="cls-1" x="76.85" y="118.21" width="4.17" height="58.33" transform="translate(-68.5 68.53) rotate(-33.69)"/><rect id="_6" data-name="6" x="209.6" y="24.15" width="33.33" height="50" transform="translate(10.74 133.77) rotate(-33.69)"/><rect id="_5" data-name="5" class="cls-1" x="218.99" y="23.45" width="4.17" height="58.33" transform="translate(7.94 131.47) rotate(-33.69)"/><rect id="_4" data-name="4" class="cls-1" x="229.39" y="16.52" width="4.17" height="58.33" transform="translate(13.53 136.07) rotate(-33.69)"/><rect id="_3" data-name="3" class="cls-1" x="205.44" y="47.07" width="41.67" height="4.17" transform="translate(10.73 133.76) rotate(-33.69)"/><rect id="_2" data-name="2" x="222.1" y="44.99" width="8.33" height="8.33" transform="translate(10.74 133.78) rotate(-33.69)"/><rect id="_1" data-name="1" class="cls-1" x="65.4" y="148.76" width="16.67" height="4.17" transform="translate(-71.29 66.23) rotate(-33.69)"/></svg>