<svg id="Countryflags.com" xmlns="http://www.w3.org/2000/svg" viewBox="0 0 300 150"><defs><style>.cls-1{fill:#cc0001;}.cls-2{fill:#fff;}.cls-3{fill:#010066;}.cls-4{fill:#fc0;}</style></defs><title>malaysia</title><rect id="_11" data-name="11" class="cls-1" width="300" height="150"/><rect id="_10" data-name="10" class="cls-2" y="139.29" width="300" height="10.71"/><rect id="_9" data-name="9" class="cls-2" y="117.86" width="300" height="10.71"/><rect id="_8" data-name="8" class="cls-2" y="96.43" width="300" height="10.71"/><rect id="_7" data-name="7" class="cls-2" y="75" width="300" height="10.71"/><rect id="_6" data-name="6" class="cls-2" y="53.57" width="300" height="10.71"/><rect id="_5" data-name="5" class="cls-2" y="32.14" width="300" height="10.71"/><rect id="_4" data-name="4" class="cls-2" y="10.71" width="300" height="10.71"/><rect id="_3" data-name="3" class="cls-3" width="150" height="85.71"/><path id="_2" data-name="2" class="cls-4" d="M61.71,10.71A32.15,32.15,0,1,0,79.17,69.88a28.5,28.5,0,1,1,.57-53.67A32.15,32.15,0,0,0,61.71,10.71Z"/><path id="_1" data-name="1" class="cls-4" d="M115.2,59.59,101.61,52.5l4,14.51L96.54,54.87,93.71,69.64,90.92,54.87,81.8,67l4.06-14.49L72.25,59.53,82.36,48.19,67,48.78l14.16-5.94L67,36.86l15.4.63L72.3,26.12l13.59,7.09-4-14.5L91,30.84l2.83-14.77,2.79,14.78,9.12-12.11-4.06,14.5,13.61-7L105.14,37.53l15.4-.59-14.16,5.94,14.14,6-15.4-.64Z"/></svg>