<svg id="Countryflags.com" xmlns="http://www.w3.org/2000/svg" xmlns:xlink="http://www.w3.org/1999/xlink" viewBox="0 0 303.35 156.71"><defs><style>.cls-1{fill:none;}.cls-2{fill:#00247d;}.cls-3{clip-path:url(#clip-path);}.cls-4,.cls-7{stroke:#fff;}.cls-4,.cls-8{stroke-width:15px;}.cls-5{clip-path:url(#clip-path-2);}.cls-6,.cls-8{stroke:#cc142b;}.cls-6{stroke-width:10px;}.cls-7{stroke-width:25px;}.cls-9{fill:#fff;}.cls-10{fill:#cc142b;}</style><clipPath id="clip-path" transform="translate(3.35 6.71)"><rect id="_13" data-name="13" class="cls-1" width="150" height="75"/></clipPath><clipPath id="clip-path-2" transform="translate(3.35 6.71)"><path id="_11" data-name="11" class="cls-1" d="M0,0,75,37.5H0ZM75,0h75L75,37.5Zm0,37.5h75V75Zm0,0V75H0Z"/></clipPath></defs><title>new_zealand</title><rect id="_15" data-name="15" class="cls-2" x="3.35" y="6.71" width="300" height="150"/><g id="Group_2" data-name="Group 2"><g class="cls-3"><path id="_14" data-name="14" class="cls-4" d="M0,0,150,75M0,75,150,0" transform="translate(3.35 6.71)"/></g></g><g id="Group_1" data-name="Group 1"><g class="cls-5"><path id="_12" data-name="12" class="cls-6" d="M0,0,150,75M0,75,150,0" transform="translate(3.35 6.71)"/></g></g><path id="_10" data-name="10" class="cls-7" d="M75,0V75M0,37.5H150" transform="translate(3.35 6.71)"/><path id="_9" data-name="9" class="cls-8" d="M75,0V75M0,37.5H150" transform="translate(3.35 6.71)"/><polygon id="_8" data-name="8" class="cls-9" points="247.96 59.25 254.2 63.79 251.82 71.13 258.06 66.59 264.3 71.13 261.92 63.79 268.16 59.25 260.45 59.25 258.06 51.91 255.68 59.25 247.96 59.25"/><polygon id="_7" data-name="7" class="cls-10" points="251.81 60.5 255.68 63.31 254.2 67.85 258.06 65.04 261.93 67.85 260.45 63.31 264.31 60.5 259.54 60.5 258.06 55.96 256.59 60.5 251.81 60.5"/><polygon id="_6" data-name="6" class="cls-9" points="217 33.02 224.02 38.12 221.34 46.36 228.35 41.27 235.37 46.36 232.69 38.12 239.7 33.02 231.03 33.02 228.35 24.77 225.67 33.02 217 33.02"/><polygon id="_5" data-name="5" class="cls-10" points="220.85 34.27 225.49 37.64 223.72 43.09 228.35 39.72 232.99 43.09 231.22 37.64 235.85 34.27 230.12 34.27 228.35 28.82 226.58 34.27 220.85 34.27"/><polygon id="_4" data-name="4" class="cls-9" points="182.34 67.89 189.36 72.99 186.68 81.23 193.69 76.14 200.71 81.23 198.03 72.99 205.04 67.89 196.37 67.89 193.69 59.65 191.01 67.89 182.34 67.89"/><polygon id="_3" data-name="3" class="cls-10" points="186.19 69.14 190.83 72.51 189.06 77.96 193.69 74.59 198.33 77.96 196.56 72.51 201.19 69.14 195.47 69.14 193.69 63.69 191.92 69.14 186.19 69.14"/><polygon id="_2" data-name="2" class="cls-9" points="215.75 122.61 223.54 128.27 220.57 137.43 228.35 131.77 236.14 137.43 233.17 128.27 240.95 122.61 231.33 122.61 228.35 113.46 225.38 122.61 215.75 122.61"/><polygon id="_1" data-name="1" class="cls-10" points="219.6 123.86 225.01 127.79 222.95 134.15 228.35 130.22 233.76 134.15 231.7 127.79 237.1 123.86 230.42 123.86 228.35 117.51 226.29 123.86 219.6 123.86"/></svg>