<svg id="Countryflags.com" xmlns="http://www.w3.org/2000/svg" viewBox="0 0 300 150"><defs><style>.cls-1{fill:#0038a8;}.cls-2{fill:#ce1126;}.cls-3{fill:#fff;}.cls-4{fill:#fcd116;}</style></defs><title>philippines</title><rect id="_31" data-name="31" class="cls-1" width="300" height="150"/><rect id="_30" data-name="30" class="cls-2" y="75" width="300" height="75"/><path id="_29" data-name="29" class="cls-3" d="M129.9,75,0,150V0"/><circle id="_28" data-name="28" class="cls-4" cx="46.67" cy="75" r="15"/><path id="_27" data-name="27" class="cls-4" d="M15,75,17,77l29.72-2L17,73.05Z"/><path id="_26" data-name="26" class="cls-4" d="M18.33,78.73l1.59,1.59L46.67,75Z"/><path id="_25" data-name="25" class="cls-4" d="M18.33,71.27l1.59-1.59L46.67,75Z"/><path id="_24" data-name="24" class="cls-4" d="M24.27,52.61v2.75L46.67,75,27,52.61Z"/><path id="_23" data-name="23" class="cls-4" d="M24,57.6v2.25L46.67,75Z"/><path id="_22" data-name="22" class="cls-4" d="M29.27,52.33h2.25L46.67,75Z"/><path id="_21" data-name="21" class="cls-4" d="M46.67,43.33l-2,2,2,29.72,1.94-29.72Z"/><path id="_20" data-name="20" class="cls-4" d="M42.94,46.67l-1.59,1.59L46.67,75Z"/><path id="_19" data-name="19" class="cls-4" d="M50.4,46.67,52,48.26,46.67,75Z"/><path id="_18" data-name="18" class="cls-4" d="M69.06,52.61H66.3L46.67,75,69.06,55.36Z"/><path id="_17" data-name="17" class="cls-4" d="M64.06,52.33H61.82L46.67,75Z"/><path id="_16" data-name="16" class="cls-4" d="M69.34,57.6v2.25L46.67,75Z"/><path id="_15" data-name="15" class="cls-4" d="M78.33,75l-1.94-2L46.67,75l29.72,2Z"/><path id="_14" data-name="14" class="cls-4" d="M75,71.27l-1.59-1.59L46.67,75Z"/><path id="_13" data-name="13" class="cls-4" d="M75,78.73l-1.59,1.59L46.67,75Z"/><path id="_12" data-name="12" class="cls-4" d="M69.06,97.39V94.64L46.67,75,66.3,97.39Z"/><path id="_11" data-name="11" class="cls-4" d="M69.34,92.4V90.15L46.67,75Z"/><path id="_10" data-name="10" class="cls-4" d="M64.06,97.67H61.82L46.67,75Z"/><path id="_9" data-name="9" class="cls-4" d="M46.67,106.67l1.94-2L46.67,75l-2,29.72Z"/><path id="_8" data-name="8" class="cls-4" d="M50.4,103.33,52,101.74,46.67,75Z"/><path id="_7" data-name="7" class="cls-4" d="M42.94,103.33l-1.59-1.59L46.67,75Z"/><path id="_6" data-name="6" class="cls-4" d="M24.27,97.39H27L46.67,75,24.27,94.64Z"/><path id="_5" data-name="5" class="cls-4" d="M29.27,97.67h2.25L46.67,75Z"/><path id="_4" data-name="4" class="cls-4" d="M24,92.4V90.15L46.67,75Z"/><polygon id="_3" data-name="3" class="cls-4" points="3.52 21.94 9.44 22.68 10.8 28.5 13.33 23.09 19.28 23.6 14.93 19.51 17.24 14.01 12.02 16.89 7.5 12.99 8.62 18.85 3.52 21.94"/><polygon id="_2" data-name="2" class="cls-4" points="3.52 128.06 8.62 131.15 7.5 137.01 12.02 133.11 17.24 135.99 14.93 130.49 19.28 126.4 13.33 126.91 10.8 121.5 9.44 127.32 3.52 128.06"/><polygon id="_1" data-name="1" class="cls-4" points="99.83 70.1 103.24 75 99.83 79.9 105.54 78.17 109.14 82.92 109.27 76.96 114.9 75 109.27 73.04 109.14 67.08 105.54 71.83 99.83 70.1"/></svg>