<svg id="Countryflags.com" xmlns="http://www.w3.org/2000/svg" viewBox="0 0 300 200"><defs><style>.cls-1{fill:#ed2939;}.cls-2{fill:#fff;}</style></defs><title>singapore</title><rect id="_9" data-name="9" class="cls-1" width="300" height="100"/><rect id="_8" data-name="8" class="cls-2" y="100" width="300" height="100"/><path id="_7" data-name="7" class="cls-2" d="M102.89,50a37.6,37.6,0,1,1-37.6-37.6A37.59,37.59,0,0,1,102.89,50Z"/><path id="_6" data-name="6" class="cls-1" d="M114.71,50A35.54,35.54,0,1,1,79.17,14.46,35.54,35.54,0,0,1,114.71,50Z"/><path id="_5" data-name="5" class="cls-2" d="M69.94,50.91,64.84,47l-5.11,3.92,2-6.32-5.12-3.9,6.32,0,1.94-6.33,2,6.33,6.32,0L68,44.59Z"/><path id="_4" data-name="4" class="cls-2" d="M110,50.91,104.92,47l-5.11,3.92,2-6.32-5.13-3.9,6.33,0,1.94-6.33,1.94,6.33,6.32,0-5.12,3.9Z"/><path id="_3" data-name="3" class="cls-2" d="M90,36,84.9,32.11,79.79,36l2-6.32-5.13-3.89H83L84.9,19.5l1.94,6.33h6.32L88,29.71Z"/><path id="_2" data-name="2" class="cls-2" d="M77.44,74.71l-5.1-3.92-5.11,3.92,2-6.32L64.07,64.5h6.32l1.94-6.33,2,6.33,6.32,0-5.12,3.9Z"/><path id="_1" data-name="1" class="cls-2" d="M102.53,74.71l-5.11-3.92-5.11,3.92,2-6.32L89.15,64.5h6.33l1.94-6.33,1.94,6.33,6.32,0-5.12,3.9Z"/></svg>