<svg id="Layer_1" data-name="Layer 1" xmlns="http://www.w3.org/2000/svg" viewBox="0 0 118.09 689.21"><defs><style>.cls-1{fill:#026670;}.cls-2{fill:#9fedd7;}.cls-3{fill:#fef9c7;}.cls-4{fill:#fce181;}.cls-5{fill:#ffc200;}.cls-6{fill:#f90;}.cls-7{fill:#86a8ad;}.cls-10,.cls-11,.cls-12,.cls-7,.cls-8,.cls-9{stroke:#000;stroke-miterlimit:10;}.cls-12,.cls-8{fill:none;}.cls-9{fill:#779496;}.cls-11{fill:#333;stroke-width:0.5px;}.cls-12{stroke-width:3px;}</style></defs><title>taipei101</title><polyline id="asia_color" class="cls-1" points="18.05 546.09 12.05 497.09 18.05 497.09 13.05 451.09 18.05 451.09 14.05 400.09 18.05 400.09 14.05 354.09 18.05 354.09 14.05 306.09 19.05 306.09 15.72 280.59 104.11 280.59 102.05 305.09 106.05 305.09 102.05 353.09 106.05 353.09 102.05 400.09 106.05 400.09 102.05 449.09 106.05 449.09 102.22 498.67 107.05 499.09 103.05 546.09 50.05 549.09 18.05 546.09"/><polyline id="europe_color" class="cls-2" points="15.72 280.59 14.05 261.09 19.05 260.09 17.76 250.54 103.66 250.54 104.05 258.09 106.05 258.09 104.11 280.59 15.72 280.59"/><polyline id="america_color" class="cls-3" points="17.76 250.54 15.36 222.94 104.81 222.94 103.75 250.54 17.76 250.54"/><polyline id="other_color" class="cls-4" points="15.36 222.94 15.05 213.09 20.05 212.09 14.05 169.07 106.05 169.34 103.05 209.09 106.05 209.09 104.81 222.94 15.36 222.94"/><polyline id="oceania_color" class="cls-5" points="14.14 169.11 14.05 167.09 23.76 163.9 107.05 164.09 105.55 169.34 14.14 169.11"/><polyline id="africa_color" class="cls-6" points="25.49 163.9 52.05 156.09 107.05 164.09 25.49 163.9"/><g id="taipei_101"><polygon class="cls-7" points="46.55 688.59 0.55 678.59 15.55 546.59 49.55 549.59 46.55 688.59"/><polygon class="cls-7" points="49.55 549.59 105.55 546.59 117.55 679.59 46.55 688.59 49.55 549.59"/><path class="cls-8" d="M10.54,497.31l40,2,55-1q-2,24-4,48l-53,3-32-3Z" transform="translate(1.01 0.28)"/><path class="cls-8" d="M11.54,450.31l39,3,55-4q-2,24-4,48l-51,2-34-2Q14,473.8,11.54,450.31Z" transform="translate(1.01 0.28)"/><path class="cls-8" d="M12.54,400.31l38,3,55-3q-2,24.49-4,49l-53,4-32-3Q14.55,425.3,12.54,400.31Z" transform="translate(1.01 0.28)"/><path class="cls-8" d="M12.54,354.31h38l55-1q-2,23.49-4,47l-53,2-32-2Q14.55,377.3,12.54,354.31Z" transform="translate(1.01 0.28)"/><path class="cls-8" d="M12.54,306.31l37-1h56q-2,24-4,48l-51,1h-34Q14.55,330.31,12.54,306.31Z" transform="translate(1.01 0.28)"/><path class="cls-8" d="M12.54,260.31l38-6,54,3-3,48-53-1-31,2Q15,283.3,12.54,260.31Z" transform="translate(1.01 0.28)"/><path class="cls-8" d="M13.54,213.31l37-8,54,4q-1,24-2,48l-53-3-32,5Q15.55,236.3,13.54,213.31Z" transform="translate(1.01 0.28)"/><path class="cls-8" d="M12.54,166.31l38-10,55,7q-2,23-4,46l-50-4-33,7Z" transform="translate(1.01 0.28)"/><polygon class="cls-7" points="28.21 162.73 29.55 156.59 52.55 150.59 93.55 155.59 95.57 162.19 51.55 156.59 28.21 162.73"/><polygon class="cls-7" points="34.55 155.59 40.55 141.59 56.55 138.59 84.55 142.59 87.55 154.59 52.55 150.59 34.55 155.59"/><polygon class="cls-7" points="42.55 140.59 42.55 107.59 57.55 102.59 78.55 107.59 78.55 141.59 56.55 138.59 42.55 140.59"/><polygon class="cls-9" points="39.55 108.59 39.55 101.59 57.55 95.59 82.55 101.59 82.55 108.59 57.55 102.59 39.55 108.59"/><polygon class="cls-7" points="42.55 100.59 42.55 86.59 58.55 82.59 78.55 86.59 78.55 100.59 57.55 95.59 42.55 100.59"/><polygon class="cls-7" points="51.55 83.59 51.55 70.59 54.55 69.59 54.55 66.59 51.55 66.59 51.55 61.59 69.55 61.59 69.55 66.59 67.55 66.59 67.55 69.59 69.55 70.59 69.55 84.59 57.55 82.59 51.55 83.59"/><polygon class="cls-7" points="56.55 61.59 57.55 4.59 60.55 0.59 63.55 1.59 63.55 61.59 56.55 61.59"/><circle class="cls-8" cx="83.55" cy="551.59" r="10"/><circle class="cls-10" cx="81.55" cy="552.59" r="10"/><circle class="cls-11" cx="83.55" cy="551.59" r="10"/><ellipse class="cls-10" cx="32.55" cy="552.59" rx="7" ry="9"/><ellipse class="cls-11" cx="30.55" cy="551.59" rx="7" ry="9"/><line class="cls-12" x1="25.05" y1="566.09" x2="38.05" y2="568.09"/><line class="cls-12" x1="24.05" y1="573.09" x2="37.05" y2="575.09"/><line class="cls-12" x1="23.05" y1="580.09" x2="36.05" y2="582.09"/><line class="cls-12" x1="22.05" y1="588.09" x2="35.05" y2="590.09"/><line class="cls-12" x1="22.05" y1="595.09" x2="35.05" y2="597.09"/><line class="cls-12" x1="21.05" y1="602.09" x2="34.05" y2="604.09"/><line class="cls-12" x1="21.05" y1="608.09" x2="34.05" y2="610.09"/><line class="cls-12" x1="20.05" y1="615.09" x2="33.05" y2="617.09"/><line class="cls-12" x1="19.05" y1="622.09" x2="32.05" y2="624.09"/><line class="cls-12" x1="19.05" y1="628.09" x2="32.05" y2="630.09"/><line class="cls-12" x1="18.05" y1="635.09" x2="31.05" y2="637.09"/><line class="cls-12" x1="17.05" y1="641.09" x2="30.05" y2="643.09"/><line class="cls-12" x1="16.05" y1="648.09" x2="29.05" y2="650.09"/><line class="cls-12" x1="15.1" y1="654.82" x2="28" y2="657.36"/><line class="cls-12" x1="69.05" y1="567.09" x2="91.05" y2="565.09"/><line class="cls-12" x1="70.05" y1="574.09" x2="92.05" y2="572.09"/><line class="cls-12" x1="70.05" y1="581.09" x2="92.05" y2="579.09"/><line class="cls-12" x1="71.05" y1="609.09" x2="93.05" y2="607.09"/><line class="cls-12" x1="70.05" y1="588.09" x2="92.05" y2="586.09"/><line class="cls-12" x1="70.05" y1="595.09" x2="92.05" y2="593.09"/><line class="cls-12" x1="71.05" y1="602.09" x2="93.05" y2="600.09"/><line class="cls-12" x1="71.05" y1="616.09" x2="93.05" y2="614.09"/><line class="cls-12" x1="72.05" y1="623.09" x2="94.05" y2="621.09"/><line class="cls-12" x1="72.05" y1="630.09" x2="94.05" y2="628.09"/><line class="cls-12" x1="72.05" y1="658.09" x2="94.05" y2="656.09"/><line class="cls-12" x1="72.05" y1="637.09" x2="94.05" y2="635.09"/><line class="cls-12" x1="72.05" y1="644.09" x2="94.05" y2="642.09"/><line class="cls-12" x1="72.05" y1="651.09" x2="94.05" y2="649.09"/></g></svg>