<svg id="Countryflags.com" xmlns="http://www.w3.org/2000/svg" viewBox="0 0 300 157.89"><defs><style>.cls-1{fill:#fff;}.cls-2{fill:#b22234;}.cls-3{fill:#3c3b6e;}</style></defs><title>united_states</title><rect id="_59" data-name="59" class="cls-1" width="300" height="157.89"/><rect id="_58" data-name="58" class="cls-2" width="300" height="12.15"/><rect id="_57" data-name="57" class="cls-2" y="24.29" width="300" height="12.15"/><rect id="_56" data-name="56" class="cls-2" y="48.58" width="300" height="12.15"/><rect id="_55" data-name="55" class="cls-2" y="72.87" width="300" height="12.15"/><rect id="_54" data-name="54" class="cls-2" y="97.17" width="300" height="12.15"/><rect id="_53" data-name="53" class="cls-2" y="121.46" width="300" height="12.15"/><rect id="_52" data-name="52" class="cls-2" y="145.75" width="300" height="12.15"/><rect id="_51" data-name="51" class="cls-3" width="120" height="85.02"/><polygon id="_50" data-name="50" class="cls-1" points="5.64 6.9 8.5 8.98 7.41 12.34 10.26 10.26 13.12 12.34 12.03 8.98 14.89 6.9 11.36 6.9 10.26 3.54 9.17 6.9 5.64 6.9"/><polygon id="_49" data-name="49" class="cls-1" points="25.53 6.9 28.39 8.98 27.3 12.34 30.16 10.26 33.02 12.34 31.92 8.98 34.78 6.9 31.25 6.9 30.16 3.54 29.07 6.9 25.53 6.9"/><polygon id="_48" data-name="48" class="cls-1" points="45.43 6.9 48.29 8.98 47.19 12.34 50.05 10.26 52.91 12.34 51.82 8.98 54.68 6.9 51.14 6.9 50.05 3.54 48.96 6.9 45.43 6.9"/><polygon id="_47" data-name="47" class="cls-1" points="65.32 6.9 68.18 8.98 67.09 12.34 69.95 10.26 72.81 12.34 71.71 8.98 74.57 6.9 71.04 6.9 69.95 3.54 68.86 6.9 65.32 6.9"/><polygon id="_46" data-name="46" class="cls-1" points="85.22 6.9 88.08 8.98 86.98 12.34 89.84 10.26 92.7 12.34 91.61 8.98 94.47 6.9 90.93 6.9 89.84 3.54 88.75 6.9 85.22 6.9"/><polygon id="_45" data-name="45" class="cls-1" points="105.11 6.9 107.97 8.98 106.88 12.34 109.74 10.26 112.59 12.34 111.5 8.98 114.36 6.9 110.83 6.9 109.74 3.54 108.64 6.9 105.11 6.9"/><polygon id="_44" data-name="44" class="cls-1" points="15.59 15.43 18.44 17.5 17.35 20.87 20.21 18.79 23.07 20.87 21.98 17.5 24.84 15.43 21.3 15.43 20.21 12.07 19.12 15.43 15.59 15.43"/><polygon id="_43" data-name="43" class="cls-1" points="35.48 15.43 38.34 17.5 37.25 20.87 40.1 18.79 42.96 20.87 41.87 17.5 44.73 15.43 41.2 15.43 40.1 12.07 39.01 15.43 35.48 15.43"/><polygon id="_42" data-name="42" class="cls-1" points="55.38 15.43 58.23 17.5 57.14 20.87 60 18.79 62.86 20.87 61.77 17.5 64.63 15.43 61.09 15.43 60 12.07 58.91 15.43 55.38 15.43"/><polygon id="_41" data-name="41" class="cls-1" points="75.27 15.43 78.13 17.5 77.04 20.87 79.89 18.79 82.75 20.87 81.66 17.5 84.52 15.43 80.99 15.43 79.89 12.07 78.8 15.43 75.27 15.43"/><polygon id="_40" data-name="40" class="cls-1" points="95.16 15.43 98.02 17.5 96.93 20.87 99.79 18.79 102.65 20.87 101.56 17.5 104.41 15.43 100.88 15.43 99.79 12.07 98.7 15.43 95.16 15.43"/><polygon id="_39" data-name="39" class="cls-1" points="5.64 23.95 8.5 26.03 7.41 29.39 10.26 27.32 13.12 29.39 12.03 26.03 14.89 23.95 11.36 23.95 10.26 20.59 9.17 23.95 5.64 23.95"/><polygon id="_38" data-name="38" class="cls-1" points="25.53 23.95 28.39 26.03 27.3 29.39 30.16 27.32 33.02 29.39 31.92 26.03 34.78 23.95 31.25 23.95 30.16 20.59 29.07 23.95 25.53 23.95"/><polygon id="_37" data-name="37" class="cls-1" points="45.43 23.95 48.29 26.03 47.19 29.39 50.05 27.32 52.91 29.39 51.82 26.03 54.68 23.95 51.14 23.95 50.05 20.59 48.96 23.95 45.43 23.95"/><polygon id="_36" data-name="36" class="cls-1" points="65.32 23.95 68.18 26.03 67.09 29.39 69.95 27.32 72.81 29.39 71.71 26.03 74.57 23.95 71.04 23.95 69.95 20.59 68.86 23.95 65.32 23.95"/><polygon id="_35" data-name="35" class="cls-1" points="85.22 23.95 88.08 26.03 86.98 29.39 89.84 27.32 92.7 29.39 91.61 26.03 94.47 23.95 90.93 23.95 89.84 20.59 88.75 23.95 85.22 23.95"/><polygon id="_34" data-name="34" class="cls-1" points="105.11 23.95 107.97 26.03 106.88 29.39 109.74 27.32 112.59 29.39 111.5 26.03 114.36 23.95 110.83 23.95 109.74 20.59 108.64 23.95 105.11 23.95"/><polygon id="_33" data-name="33" class="cls-1" points="15.83 32.51 18.69 34.59 17.6 37.95 20.46 35.87 23.31 37.95 22.22 34.59 25.08 32.51 21.55 32.51 20.46 29.15 19.36 32.51 15.83 32.51"/><polygon id="_32" data-name="32" class="cls-1" points="35.73 32.51 38.58 34.59 37.49 37.95 40.35 35.87 43.21 37.95 42.12 34.59 44.98 32.51 41.44 32.51 40.35 29.15 39.26 32.51 35.73 32.51"/><polygon id="_31" data-name="31" class="cls-1" points="55.62 32.51 58.48 34.59 57.39 37.95 60.24 35.87 63.1 37.95 62.01 34.59 64.87 32.51 61.34 32.51 60.24 29.15 59.15 32.51 55.62 32.51"/><polygon id="_30" data-name="30" class="cls-1" points="75.52 32.51 78.37 34.59 77.28 37.95 80.14 35.87 83 37.95 81.91 34.59 84.77 32.51 81.23 32.51 80.14 29.15 79.05 32.51 75.52 32.51"/><polygon id="_29" data-name="29" class="cls-1" points="95.41 32.51 98.27 34.59 97.18 37.95 100.03 35.87 102.89 37.95 101.8 34.59 104.66 32.51 101.13 32.51 100.03 29.15 98.94 32.51 95.41 32.51"/><polygon id="_28" data-name="28" class="cls-1" points="5.94 40.96 8.8 43.04 7.71 46.4 10.56 44.33 13.42 46.4 12.33 43.04 15.19 40.96 11.66 40.96 10.56 37.6 9.47 40.96 5.94 40.96"/><polygon id="_27" data-name="27" class="cls-1" points="25.84 40.96 28.69 43.04 27.6 46.4 30.46 44.33 33.32 46.4 32.23 43.04 35.09 40.96 31.55 40.96 30.46 37.6 29.37 40.96 25.84 40.96"/><polygon id="_26" data-name="26" class="cls-1" points="45.73 40.96 48.59 43.04 47.5 46.4 50.35 44.33 53.21 46.4 52.12 43.04 54.98 40.96 51.45 40.96 50.35 37.6 49.26 40.96 45.73 40.96"/><polygon id="_25" data-name="25" class="cls-1" points="65.62 40.96 68.48 43.04 67.39 46.4 70.25 44.33 73.11 46.4 72.02 43.04 74.87 40.96 71.34 40.96 70.25 37.6 69.16 40.96 65.62 40.96"/><polygon id="_24" data-name="24" class="cls-1" points="85.52 40.96 88.38 43.04 87.28 46.4 90.14 44.33 93 46.4 91.91 43.04 94.77 40.96 91.24 40.96 90.14 37.6 89.05 40.96 85.52 40.96"/><polygon id="_23" data-name="23" class="cls-1" points="105.41 40.96 108.27 43.04 107.18 46.4 110.04 44.33 112.9 46.4 111.81 43.04 114.66 40.96 111.13 40.96 110.04 37.6 108.95 40.96 105.41 40.96"/><polygon id="_22" data-name="22" class="cls-1" points="6.13 57.75 8.98 59.82 7.89 63.18 10.75 61.11 13.61 63.18 12.52 59.82 15.38 57.75 11.84 57.75 10.75 54.39 9.66 57.75 6.13 57.75"/><polygon id="_21" data-name="21" class="cls-1" points="26.02 57.75 28.88 59.82 27.79 63.18 30.65 61.11 33.51 63.18 32.41 59.82 35.27 57.75 31.74 57.75 30.65 54.39 29.55 57.75 26.02 57.75"/><polygon id="_20" data-name="20" class="cls-1" points="45.92 57.75 48.77 59.82 47.68 63.18 50.54 61.11 53.4 63.18 52.31 59.82 55.17 57.75 51.63 57.75 50.54 54.39 49.45 57.75 45.92 57.75"/><polygon id="_19" data-name="19" class="cls-1" points="65.81 57.75 68.67 59.82 67.58 63.18 70.44 61.11 73.29 63.18 72.2 59.82 75.06 57.75 71.53 57.75 70.44 54.39 69.34 57.75 65.81 57.75"/><polygon id="_18" data-name="18" class="cls-1" points="85.7 57.75 88.56 59.82 87.47 63.18 90.33 61.11 93.19 63.18 92.1 59.82 94.95 57.75 91.42 57.75 90.33 54.39 89.24 57.75 85.7 57.75"/><polygon id="_17" data-name="17" class="cls-1" points="105.6 57.75 108.46 59.82 107.37 63.18 110.22 61.11 113.08 63.18 111.99 59.82 114.85 57.75 111.32 57.75 110.22 54.39 109.13 57.75 105.6 57.75"/><polygon id="_16" data-name="16" class="cls-1" points="5.88 74.73 8.74 76.8 7.65 80.16 10.51 78.09 13.37 80.16 12.28 76.8 15.13 74.73 11.6 74.73 10.51 71.37 9.42 74.73 5.88 74.73"/><polygon id="_15" data-name="15" class="cls-1" points="25.78 74.73 28.64 76.8 27.55 80.16 30.4 78.09 33.26 80.16 32.17 76.8 35.03 74.73 31.5 74.73 30.4 71.37 29.31 74.73 25.78 74.73"/><polygon id="_14" data-name="14" class="cls-1" points="45.67 74.73 48.53 76.8 47.44 80.16 50.3 78.09 53.16 80.16 52.06 76.8 54.92 74.73 51.39 74.73 50.3 71.37 49.21 74.73 45.67 74.73"/><polygon id="_13" data-name="13" class="cls-1" points="65.57 74.73 68.43 76.8 67.33 80.16 70.19 78.09 73.05 80.16 71.96 76.8 74.82 74.73 71.28 74.73 70.19 71.37 69.1 74.73 65.57 74.73"/><polygon id="_12" data-name="12" class="cls-1" points="85.46 74.73 88.32 76.8 87.23 80.16 90.09 78.09 92.95 80.16 91.85 76.8 94.71 74.73 91.18 74.73 90.09 71.37 89 74.73 85.46 74.73"/><polygon id="_11" data-name="11" class="cls-1" points="105.36 74.73 108.22 76.8 107.12 80.16 109.98 78.09 112.84 80.16 111.75 76.8 114.61 74.73 111.07 74.73 109.98 71.37 108.89 74.73 105.36 74.73"/><polygon id="_10" data-name="10" class="cls-1" points="15.89 49.27 18.75 51.35 17.66 54.71 20.52 52.63 23.37 54.71 22.28 51.35 25.14 49.27 21.61 49.27 20.52 45.91 19.42 49.27 15.89 49.27"/><polygon id="_9" data-name="9" class="cls-1" points="35.78 49.27 38.64 51.35 37.55 54.71 40.41 52.63 43.27 54.71 42.18 51.35 45.03 49.27 41.5 49.27 40.41 45.91 39.32 49.27 35.78 49.27"/><polygon id="_8" data-name="8" class="cls-1" points="55.68 49.27 58.54 51.35 57.45 54.71 60.3 52.63 63.16 54.71 62.07 51.35 64.93 49.27 61.4 49.27 60.3 45.91 59.21 49.27 55.68 49.27"/><polygon id="_7" data-name="7" class="cls-1" points="75.57 49.27 78.43 51.35 77.34 54.71 80.2 52.63 83.06 54.71 81.97 51.35 84.82 49.27 81.29 49.27 80.2 45.91 79.11 49.27 75.57 49.27"/><polygon id="_6" data-name="6" class="cls-1" points="95.47 49.27 98.33 51.35 97.23 54.71 100.09 52.63 102.95 54.71 101.86 51.35 104.72 49.27 101.19 49.27 100.09 45.91 99 49.27 95.47 49.27"/><polygon id="_5" data-name="5" class="cls-1" points="15.83 66.22 18.69 68.3 17.6 71.66 20.46 69.59 23.31 71.66 22.22 68.3 25.08 66.22 21.55 66.22 20.46 62.87 19.36 66.22 15.83 66.22"/><polygon id="_4" data-name="4" class="cls-1" points="35.73 66.22 38.58 68.3 37.49 71.66 40.35 69.59 43.21 71.66 42.12 68.3 44.98 66.22 41.44 66.22 40.35 62.87 39.26 66.22 35.73 66.22"/><polygon id="_3" data-name="3" class="cls-1" points="55.62 66.22 58.48 68.3 57.39 71.66 60.25 69.59 63.1 71.66 62.01 68.3 64.87 66.22 61.34 66.22 60.25 62.87 59.15 66.22 55.62 66.22"/><polygon id="_2" data-name="2" class="cls-1" points="75.52 66.22 78.37 68.3 77.28 71.66 80.14 69.59 83 71.66 81.91 68.3 84.77 66.22 81.23 66.22 80.14 62.87 79.05 66.22 75.52 66.22"/><polygon id="_1" data-name="1" class="cls-1" points="95.41 66.22 98.27 68.3 97.18 71.66 100.03 69.59 102.89 71.66 101.8 68.3 104.66 66.22 101.13 66.22 100.03 62.87 98.94 66.22 95.41 66.22"/></svg>